<mxfile host="Electron" modified="2023-09-24T16:44:02.848Z" agent="Mozilla/5.0 (X11; Linux x86_64) AppleWebKit/537.36 (KHTML, like Gecko) draw.io/21.7.5 Chrome/114.0.5735.289 Electron/25.8.1 Safari/537.36" etag="_0hNx9vsi9pCmo-qMzjE" version="21.7.5" type="device">
  <diagram id="C5RBs43oDa-KdzZeNtuy" name="Page-1">
    <mxGraphModel dx="1687" dy="931" grid="1" gridSize="10" guides="1" tooltips="1" connect="1" arrows="1" fold="1" page="1" pageScale="1" pageWidth="827" pageHeight="1169" math="0" shadow="0">
      <root>
        <mxCell id="WIyWlLk6GJQsqaUBKTNV-0" />
        <mxCell id="WIyWlLk6GJQsqaUBKTNV-1" parent="WIyWlLk6GJQsqaUBKTNV-0" />
        <mxCell id="oQMms8DvH1y4KYn_owyl-0" value="&lt;font style=&quot;font-size: 14px;&quot;&gt;Цикл i от 1 до l&lt;/font&gt;&lt;font size=&quot;1&quot; style=&quot;&quot;&gt;&lt;sub&gt;1&lt;/sub&gt;&lt;/font&gt;&lt;font style=&quot;&quot;&gt;&lt;span style=&quot;font-size: 14px;&quot;&gt;&amp;nbsp;+ 1&lt;/span&gt;&lt;/font&gt;" style="strokeWidth=2;html=1;shape=mxgraph.flowchart.loop_limit;whiteSpace=wrap;" vertex="1" parent="WIyWlLk6GJQsqaUBKTNV-1">
          <mxGeometry x="337" y="120" width="154" height="70" as="geometry" />
        </mxCell>
        <mxCell id="oQMms8DvH1y4KYn_owyl-3" value="&lt;font style=&quot;font-size: 14px;&quot;&gt;Цикл j от 1 до l&lt;/font&gt;&lt;font style=&quot;font-size: 8.33333px;&quot;&gt;&lt;sub&gt;2&lt;/sub&gt;&lt;/font&gt;&lt;font style=&quot;&quot;&gt;&lt;span style=&quot;font-size: 14px;&quot;&gt;&amp;nbsp;+ 1&lt;/span&gt;&lt;/font&gt;" style="strokeWidth=2;html=1;shape=mxgraph.flowchart.loop_limit;whiteSpace=wrap;" vertex="1" parent="WIyWlLk6GJQsqaUBKTNV-1">
          <mxGeometry x="337" y="210" width="154" height="70" as="geometry" />
        </mxCell>
        <mxCell id="oQMms8DvH1y4KYn_owyl-5" value="&lt;font style=&quot;font-size: 14px;&quot;&gt;mtr[i][j] = min(&lt;br&gt;mtr[i][j-1] + 1,&lt;br&gt;mtr[i-1][j] + 1,&lt;br&gt;mtr[i-1][j-1] + &lt;br&gt;(S&lt;sub&gt;1&lt;/sub&gt;[i-1] != S&lt;sub&gt;2&lt;/sub&gt;&amp;nbsp;[j-1]))&lt;br&gt;&lt;/font&gt;" style="shape=process;whiteSpace=wrap;html=1;backgroundOutline=1;" vertex="1" parent="WIyWlLk6GJQsqaUBKTNV-1">
          <mxGeometry x="331.25" y="300" width="165.5" height="100" as="geometry" />
        </mxCell>
        <mxCell id="oQMms8DvH1y4KYn_owyl-6" value="" style="endArrow=none;html=1;rounded=0;entryX=0.5;entryY=1;entryDx=0;entryDy=0;entryPerimeter=0;" edge="1" parent="WIyWlLk6GJQsqaUBKTNV-1" source="oQMms8DvH1y4KYn_owyl-5" target="oQMms8DvH1y4KYn_owyl-3">
          <mxGeometry width="50" height="50" relative="1" as="geometry">
            <mxPoint x="210" y="410" as="sourcePoint" />
            <mxPoint x="260" y="360" as="targetPoint" />
          </mxGeometry>
        </mxCell>
        <mxCell id="oQMms8DvH1y4KYn_owyl-7" value="&lt;font style=&quot;font-size: 14px;&quot;&gt;&amp;nbsp;Конец цикла по j&lt;/font&gt;" style="strokeWidth=2;html=1;shape=mxgraph.flowchart.loop_limit;whiteSpace=wrap;direction=west;" vertex="1" parent="WIyWlLk6GJQsqaUBKTNV-1">
          <mxGeometry x="342.75" y="640" width="154" height="70" as="geometry" />
        </mxCell>
        <mxCell id="oQMms8DvH1y4KYn_owyl-11" value="&lt;font style=&quot;font-size: 14px;&quot;&gt;&amp;nbsp;Конец цикла по i&lt;/font&gt;" style="strokeWidth=2;html=1;shape=mxgraph.flowchart.loop_limit;whiteSpace=wrap;direction=west;" vertex="1" parent="WIyWlLk6GJQsqaUBKTNV-1">
          <mxGeometry x="342.75" y="730" width="154" height="70" as="geometry" />
        </mxCell>
        <mxCell id="oQMms8DvH1y4KYn_owyl-13" value="&lt;span style=&quot;font-size: 14px;&quot;&gt;Вернуть mtr[l&lt;sub&gt;1&lt;/sub&gt;][l&lt;sub&gt;2&lt;/sub&gt;]&lt;/span&gt;" style="rounded=0;whiteSpace=wrap;html=1;" vertex="1" parent="WIyWlLk6GJQsqaUBKTNV-1">
          <mxGeometry x="339.75" y="820" width="160" height="70" as="geometry" />
        </mxCell>
        <mxCell id="oQMms8DvH1y4KYn_owyl-14" value="" style="endArrow=none;html=1;rounded=0;entryX=0.5;entryY=0;entryDx=0;entryDy=0;entryPerimeter=0;exitX=0.5;exitY=0;exitDx=0;exitDy=0;" edge="1" parent="WIyWlLk6GJQsqaUBKTNV-1" source="oQMms8DvH1y4KYn_owyl-13" target="oQMms8DvH1y4KYn_owyl-11">
          <mxGeometry width="50" height="50" relative="1" as="geometry">
            <mxPoint x="210" y="1229" as="sourcePoint" />
            <mxPoint x="260" y="1179" as="targetPoint" />
          </mxGeometry>
        </mxCell>
        <mxCell id="oQMms8DvH1y4KYn_owyl-15" value="&lt;font style=&quot;font-size: 14px;&quot;&gt;Конец&lt;/font&gt;" style="strokeWidth=2;html=1;shape=mxgraph.flowchart.terminator;whiteSpace=wrap;" vertex="1" parent="WIyWlLk6GJQsqaUBKTNV-1">
          <mxGeometry x="331.75" y="910" width="176" height="80" as="geometry" />
        </mxCell>
        <mxCell id="oQMms8DvH1y4KYn_owyl-16" value="" style="endArrow=none;html=1;rounded=0;entryX=0.5;entryY=1;entryDx=0;entryDy=0;" edge="1" parent="WIyWlLk6GJQsqaUBKTNV-1" source="oQMms8DvH1y4KYn_owyl-15" target="oQMms8DvH1y4KYn_owyl-13">
          <mxGeometry width="50" height="50" relative="1" as="geometry">
            <mxPoint x="210" y="1329" as="sourcePoint" />
            <mxPoint x="260" y="1279" as="targetPoint" />
          </mxGeometry>
        </mxCell>
        <mxCell id="oQMms8DvH1y4KYn_owyl-17" value="&lt;font style=&quot;font-size: 14px;&quot;&gt;A&lt;/font&gt;" style="ellipse;whiteSpace=wrap;html=1;aspect=fixed;" vertex="1" parent="WIyWlLk6GJQsqaUBKTNV-1">
          <mxGeometry x="374" y="20" width="80" height="80" as="geometry" />
        </mxCell>
        <mxCell id="oQMms8DvH1y4KYn_owyl-18" value="" style="endArrow=none;html=1;rounded=0;entryX=0.5;entryY=1;entryDx=0;entryDy=0;exitX=0.5;exitY=0;exitDx=0;exitDy=0;exitPerimeter=0;" edge="1" parent="WIyWlLk6GJQsqaUBKTNV-1" source="oQMms8DvH1y4KYn_owyl-0" target="oQMms8DvH1y4KYn_owyl-17">
          <mxGeometry width="50" height="50" relative="1" as="geometry">
            <mxPoint x="390" y="180" as="sourcePoint" />
            <mxPoint x="440" y="130" as="targetPoint" />
          </mxGeometry>
        </mxCell>
        <mxCell id="oQMms8DvH1y4KYn_owyl-19" value="" style="endArrow=none;html=1;rounded=0;entryX=0.5;entryY=1;entryDx=0;entryDy=0;entryPerimeter=0;exitX=0.5;exitY=0;exitDx=0;exitDy=0;exitPerimeter=0;" edge="1" parent="WIyWlLk6GJQsqaUBKTNV-1" source="oQMms8DvH1y4KYn_owyl-3" target="oQMms8DvH1y4KYn_owyl-0">
          <mxGeometry width="50" height="50" relative="1" as="geometry">
            <mxPoint x="390" y="480" as="sourcePoint" />
            <mxPoint x="440" y="430" as="targetPoint" />
          </mxGeometry>
        </mxCell>
        <mxCell id="K2xnkDoKMP2m7XTHGWSk-0" value="&lt;font style=&quot;font-size: 14px;&quot;&gt;i &amp;gt; 1 and j &amp;gt; 1 and &lt;br&gt;S&lt;sub&gt;1&lt;/sub&gt;[i-1] =S&lt;sub&gt;2&lt;/sub&gt;[j-2] and&lt;br&gt;S&lt;sub&gt;1&lt;/sub&gt;[i-2] =S&lt;sub&gt;2&lt;/sub&gt;[j-1]&amp;nbsp;&lt;/font&gt;" style="strokeWidth=2;html=1;shape=mxgraph.flowchart.decision;whiteSpace=wrap;" vertex="1" parent="WIyWlLk6GJQsqaUBKTNV-1">
          <mxGeometry x="306" y="420" width="216" height="130" as="geometry" />
        </mxCell>
        <mxCell id="K2xnkDoKMP2m7XTHGWSk-1" value="" style="endArrow=none;html=1;rounded=0;exitX=1;exitY=0.5;exitDx=0;exitDy=0;exitPerimeter=0;edgeStyle=orthogonalEdgeStyle;entryX=0.5;entryY=0;entryDx=0;entryDy=0;" edge="1" parent="WIyWlLk6GJQsqaUBKTNV-1" source="K2xnkDoKMP2m7XTHGWSk-0" target="K2xnkDoKMP2m7XTHGWSk-4">
          <mxGeometry width="50" height="50" relative="1" as="geometry">
            <mxPoint x="310" y="600" as="sourcePoint" />
            <mxPoint x="590" y="560" as="targetPoint" />
          </mxGeometry>
        </mxCell>
        <mxCell id="K2xnkDoKMP2m7XTHGWSk-2" value="" style="endArrow=none;html=1;rounded=0;entryX=0;entryY=0.5;entryDx=0;entryDy=0;entryPerimeter=0;edgeStyle=orthogonalEdgeStyle;exitX=0.5;exitY=1;exitDx=0;exitDy=0;exitPerimeter=0;" edge="1" parent="WIyWlLk6GJQsqaUBKTNV-1" source="oQMms8DvH1y4KYn_owyl-7" target="K2xnkDoKMP2m7XTHGWSk-0">
          <mxGeometry width="50" height="50" relative="1" as="geometry">
            <mxPoint x="430" y="650" as="sourcePoint" />
            <mxPoint x="360" y="550" as="targetPoint" />
            <Array as="points">
              <mxPoint x="420" y="620" />
              <mxPoint x="220" y="620" />
              <mxPoint x="220" y="485" />
            </Array>
          </mxGeometry>
        </mxCell>
        <mxCell id="K2xnkDoKMP2m7XTHGWSk-3" value="Да" style="text;html=1;align=center;verticalAlign=middle;resizable=0;points=[];autosize=1;strokeColor=none;fillColor=none;" vertex="1" parent="WIyWlLk6GJQsqaUBKTNV-1">
          <mxGeometry x="540" y="450" width="40" height="30" as="geometry" />
        </mxCell>
        <mxCell id="K2xnkDoKMP2m7XTHGWSk-4" value="&lt;font style=&quot;font-size: 14px;&quot;&gt;mtr[i][j] = min(&lt;br&gt;mtr[i][j],&lt;br&gt;mtr[i-2][j-2] + 1)&lt;br&gt;&lt;/font&gt;" style="shape=process;whiteSpace=wrap;html=1;backgroundOutline=1;" vertex="1" parent="WIyWlLk6GJQsqaUBKTNV-1">
          <mxGeometry x="522" y="510" width="165.5" height="80" as="geometry" />
        </mxCell>
        <mxCell id="K2xnkDoKMP2m7XTHGWSk-5" value="" style="endArrow=none;html=1;rounded=0;entryX=0.5;entryY=1;entryDx=0;entryDy=0;edgeStyle=orthogonalEdgeStyle;" edge="1" parent="WIyWlLk6GJQsqaUBKTNV-1" target="K2xnkDoKMP2m7XTHGWSk-4">
          <mxGeometry width="50" height="50" relative="1" as="geometry">
            <mxPoint x="420" y="640" as="sourcePoint" />
            <mxPoint x="360" y="550" as="targetPoint" />
            <Array as="points">
              <mxPoint x="420" y="620" />
              <mxPoint x="605" y="620" />
            </Array>
          </mxGeometry>
        </mxCell>
        <mxCell id="K2xnkDoKMP2m7XTHGWSk-6" value="" style="endArrow=none;html=1;rounded=0;entryX=0.5;entryY=1;entryDx=0;entryDy=0;" edge="1" parent="WIyWlLk6GJQsqaUBKTNV-1" source="K2xnkDoKMP2m7XTHGWSk-0" target="oQMms8DvH1y4KYn_owyl-5">
          <mxGeometry width="50" height="50" relative="1" as="geometry">
            <mxPoint x="310" y="600" as="sourcePoint" />
            <mxPoint x="360" y="550" as="targetPoint" />
          </mxGeometry>
        </mxCell>
        <mxCell id="K2xnkDoKMP2m7XTHGWSk-8" value="" style="endArrow=none;html=1;rounded=0;entryX=0.5;entryY=0;entryDx=0;entryDy=0;entryPerimeter=0;exitX=0.5;exitY=1;exitDx=0;exitDy=0;exitPerimeter=0;" edge="1" parent="WIyWlLk6GJQsqaUBKTNV-1" source="oQMms8DvH1y4KYn_owyl-11" target="oQMms8DvH1y4KYn_owyl-7">
          <mxGeometry width="50" height="50" relative="1" as="geometry">
            <mxPoint x="310" y="720" as="sourcePoint" />
            <mxPoint x="360" y="670" as="targetPoint" />
          </mxGeometry>
        </mxCell>
      </root>
    </mxGraphModel>
  </diagram>
</mxfile>
